<svg width="26" height="26" viewBox="0 0 26 26" fill="none" xmlns="http://www.w3.org/2000/svg">
<path fill-rule="evenodd" clip-rule="evenodd" d="M18.6347 7.24147C17.508 6.11479 16.0726 5.3475 14.5098 5.03665C12.947 4.7258 11.3272 4.88534 9.85511 5.4951C8.38302 6.10486 7.12481 7.13745 6.23958 8.46229C5.35435 9.78713 4.88186 11.3447 4.88186 12.9381C4.88186 14.5315 5.35435 16.0891 6.23958 17.4139C7.12481 18.7387 8.38302 19.7713 9.85511 20.3811C11.3272 20.9908 12.947 21.1504 14.5098 20.8395C16.0726 20.5287 17.508 19.7614 18.6347 18.6347C18.848 18.4214 19.1938 18.4214 19.4071 18.6347C19.6204 18.848 19.6204 19.1938 19.4071 19.4071C18.1277 20.6866 16.4976 21.5579 14.7229 21.9109C12.9482 22.2639 11.1088 22.0827 9.43707 21.3903C7.76538 20.6979 6.33657 19.5253 5.3313 18.0208C4.32604 16.5163 3.78948 14.7475 3.78948 12.9381C3.78949 11.1287 4.32604 9.35988 5.3313 7.8554C6.33657 6.35092 7.76539 5.17832 9.43708 4.48588C11.1088 3.79344 12.9482 3.61227 14.7229 3.96527C16.4976 4.31827 18.1277 5.18959 19.4071 6.46905C19.6204 6.68235 19.6204 7.02817 19.4071 7.24147C19.1938 7.45477 18.848 7.45477 18.6347 7.24147Z" fill="#EAEAEA" stroke="#EAEAEA" stroke-linecap="round"/>
<circle cx="12.8947" cy="12.7997" r="2.45597" fill="#EAEAEA" stroke="#EAEAEA"/>
<circle cx="0.701705" cy="0.701705" r="0.701705" transform="matrix(-1 0 0 1 21.8136 12.2553)" fill="#EAEAEA" stroke="#EAEAEA"/>
</svg>
